# Blender 3.5.0
# www.blender.org
mtllib model1.mtl
o Cube
v 0.132170 0.240027 -0.240027
v 0.132170 -0.240027 -0.240027
v 0.132170 0.240027 0.240027
v 0.132170 -0.240027 0.240027
v -0.555310 0.240027 -0.240027
v -0.555310 -0.240027 -0.240027
v -0.555310 0.240027 0.240027
v -0.555310 -0.240027 0.240027
v 0.679146 0.096564 -0.096564
v 0.679146 -0.096564 -0.096564
v 0.679146 0.096564 0.096564
v 0.679146 -0.096564 0.096564
vn -0.0000 1.0000 -0.0000
vn -0.0000 -0.0000 1.0000
vn -1.0000 -0.0000 -0.0000
vn -0.0000 -1.0000 -0.0000
vn 0.2537 -0.0000 0.9673
vn -0.0000 -0.0000 -1.0000
vn 1.0000 -0.0000 -0.0000
vn 0.2537 -0.0000 -0.9673
vn 0.2537 -0.9673 -0.0000
vn 0.2537 0.9673 -0.0000
vt 0.625000 0.500000
vt 0.375000 0.500000
vt 0.625000 0.750000
vt 0.375000 0.750000
vt 0.875000 0.500000
vt 0.625000 0.250000
vt 0.125000 0.500000
vt 0.375000 0.250000
vt 0.875000 0.750000
vt 0.625000 1.000000
vt 0.625000 0.000000
vt 0.375000 0.000000
vt 0.375000 1.000000
vt 0.125000 0.750000
vt 0.625000 0.500000
vt 0.375000 0.500000
vt 0.625000 0.750000
vt 0.375000 0.750000
s 0
usemtl Material
f 5/5/1 3/3/1 1/1/1
f 3/3/2 8/13/2 4/4/2
f 7/11/3 6/8/3 8/12/3
f 2/2/4 8/14/4 6/7/4
f 4/4/5 11/17/5 3/3/5
f 5/6/6 2/2/6 6/8/6
f 9/15/7 12/18/7 10/16/7
f 1/1/8 10/16/8 2/2/8
f 2/2/9 12/18/9 4/4/9
f 3/3/10 9/15/10 1/1/10
f 5/5/1 7/9/1 3/3/1
f 3/3/2 7/10/2 8/13/2
f 7/11/3 5/6/3 6/8/3
f 2/2/4 4/4/4 8/14/4
f 4/4/5 12/18/5 11/17/5
f 5/6/6 1/1/6 2/2/6
f 9/15/7 11/17/7 12/18/7
f 1/1/8 9/15/8 10/16/8
f 2/2/9 10/16/9 12/18/9
f 3/3/10 11/17/10 9/15/10
